<svg xmlns="http://www.w3.org/2000/svg" width="287.236" height="126.079" viewBox="0 0 287.236 126.079"><g transform="translate(-25.926 -139.47)"><path d="M3.926,0h8.8V-31.93h.262L25.747,0h6.216L44.688-31.93h.294V0h8.8V-47.208H42.366L28.953-13.282h-.2L15.343-47.208H3.926ZM70.533.556A11.41,11.41,0,0,0,80.871-5.234h.2V0H90.62V-24.045c0-7.066-5.856-11.745-14.918-11.745-9.258,0-14.82,4.646-15.343,11.123l-.033.393h8.735l.065-.294c.458-2.257,2.617-3.926,6.183-3.926,3.729,0,5.758,1.93,5.758,5.038V-21.3l-8.669.523c-8.7.556-13.642,4.286-13.642,10.665v.065C58.756-3.86,63.5.556,70.533.556ZM68.21-10.534V-10.6c0-2.486,1.93-4.057,5.627-4.286l7.23-.458v2.519c0,3.664-3.141,6.412-7.426,6.412C70.337-6.412,68.21-7.95,68.21-10.534ZM97,0h9.553V-20.087c0-4.58,2.715-7.786,6.936-7.786,4.351,0,6.772,2.912,6.772,7.819V0h9.553V-22.017c0-8.473-4.711-13.773-12.3-13.773-5.267,0-8.964,2.421-10.763,6.772h-.2V-47.208H97Zm49.367.556A11.41,11.41,0,0,0,156.7-5.234h.2V0h9.553V-24.045c0-7.066-5.856-11.745-14.918-11.745-9.258,0-14.82,4.646-15.343,11.123l-.033.393h8.735l.065-.294c.458-2.257,2.617-3.926,6.183-3.926,3.729,0,5.758,1.93,5.758,5.038V-21.3l-8.669.523c-8.7.556-13.642,4.286-13.642,10.665v.065C134.589-3.86,139.333.556,146.366.556Zm-2.323-11.09V-10.6c0-2.486,1.93-4.057,5.627-4.286l7.23-.458v2.519c0,3.664-3.141,6.412-7.426,6.412C146.17-6.412,144.043-7.95,144.043-10.534ZM172.833,0h9.553V-47.208h-9.553Zm26.434.556A11.41,11.41,0,0,0,209.6-5.234h.2V0h9.553V-24.045c0-7.066-5.856-11.745-14.918-11.745-9.258,0-14.82,4.646-15.343,11.123l-.033.393h8.735l.065-.294c.458-2.257,2.617-3.926,6.183-3.926,3.729,0,5.758,1.93,5.758,5.038V-21.3l-8.669.523c-8.7.556-13.642,4.286-13.642,10.665v.065C187.489-3.86,192.232.556,199.266.556Zm-2.323-11.09V-10.6c0-2.486,1.93-4.057,5.627-4.286l7.23-.458v2.519c0,3.664-3.141,6.412-7.426,6.412C199.07-6.412,196.943-7.95,196.943-10.534Zm33.893,22.083c7.786,0,12.5-2.65,15.245-10.927L258.12-35.07H248.044L240.618-7.655h-.262L232.962-35.07h-10.5L234.86,0l-.425,1.145c-.851,2.388-2.421,3.206-5.267,3.206a16.618,16.618,0,0,1-3.206-.327v7.1A30.248,30.248,0,0,0,230.836,11.548ZM271.075.556a11.41,11.41,0,0,0,10.338-5.791h.2V0h9.553V-24.045c0-7.066-5.856-11.745-14.918-11.745-9.258,0-14.82,4.646-15.343,11.123l-.033.393H269.6l.065-.294c.458-2.257,2.617-3.926,6.183-3.926,3.729,0,5.758,1.93,5.758,5.038V-21.3l-8.669.523c-8.7.556-13.642,4.286-13.642,10.665v.065C259.3-3.86,264.042.556,271.075.556Zm-2.323-11.09V-10.6c0-2.486,1.93-4.057,5.627-4.286l7.23-.458v2.519c0,3.664-3.141,6.412-7.426,6.412C270.879-6.412,268.752-7.95,268.752-10.534Z" transform="translate(22 254)" fill="#fff"/><path d="M3.926,0H34.449V-8.146H13.806V-47.208H3.926ZM44.459-39.585a5.021,5.021,0,0,0,5.1-4.973,5.021,5.021,0,0,0-5.1-4.973,5.021,5.021,0,0,0-5.1,4.973A5.021,5.021,0,0,0,44.459-39.585ZM39.683,0h9.553V-35.07H39.683Zm25.19,0H75.637L87.676-35.07H77.7L70.468-8.44h-.2L62.943-35.07H52.736Zm40.894.72C115.778.72,120.62-5.2,121.7-10.371l.1-.36H113.03l-.065.2c-.687,1.963-3.075,4.122-7,4.122-4.875,0-7.917-3.271-8.015-8.866h24.144v-2.944c0-10.6-6.445-17.568-16.717-17.568S88.526-28.658,88.526-17.5v.033C88.526-6.249,95.037.72,105.767.72Zm-.229-29.378c3.958,0,6.8,2.519,7.394,7.361H98.046C98.668-26.041,101.612-28.658,105.538-28.658Z" transform="translate(22 189)" fill="#fff"/></g></svg>