<svg xmlns="http://www.w3.org/2000/svg" width="40" height="40" viewBox="0 0 40 40"><g transform="translate(-317 -29)"><g transform="translate(317 29)" fill="none" stroke="#fff" stroke-linecap="round" stroke-linejoin="round" stroke-width="2.5"><circle cx="20" cy="20" r="20" stroke="none"/><circle cx="20" cy="20" r="18.75" fill="none"/></g><g transform="translate(322.801 36)"><path d="M11.787,19.152H9.314A.312.312,0,0,1,9,18.842V7.06a.312.312,0,0,1,.314-.31h2.473a.312.312,0,0,1,.314.31V18.842A.312.312,0,0,1,11.787,19.152Z" fill="#fff"/><path d="M24.162,19.152H21.689a.312.312,0,0,1-.314-.31V7.06a.312.312,0,0,1,.314-.31h2.473a.312.312,0,0,1,.314.31V18.842A.312.312,0,0,1,24.162,19.152Z" transform="translate(-5.554)" fill="#fff"/></g></g></svg>